<svg height="512" viewBox="0 0 256 256" width="512" xmlns="http://www.w3.org/2000/svg"><circle cx="128" cy="128" fill="#87828e" r="120.5"/><circle cx="128" cy="128" fill="#f9d335" r="95.263"/><circle cx="100.985" cy="62.146" fill="#ff4a73" r="8.792"/><circle cx="193.854" cy="155.208" fill="#ff4a73" r="8.792"/><circle cx="149.963" cy="180.708" fill="#ff4a73" r="8.792"/><path d="m49.284 153.425-2.052-7.947a3.268 3.268 0 0 1 3.246-4.085l14.049.349a3.269 3.269 0 0 1 1.667 6.03l-12 7.6a3.269 3.269 0 0 1 -4.91-1.947z" fill="#44c7b6"/><path d="m107.49 165.049 7.873 2.321a3.268 3.268 0 0 1 1.837 4.883l-7.516 11.875a3.269 3.269 0 0 1 -6.03-1.666l-.356-14.2a3.269 3.269 0 0 1 4.192-3.213z" fill="#44c7b6"/><path d="m135.5 222.97q-3.72.285-7.5.29a95.26 95.26 0 0 1 0-190.52q3.78 0 7.5.29a95.266 95.266 0 0 0 0 189.94z" fill="#f9e27d"/><path d="m223.26 128a95.261 95.261 0 0 1 -95.26 95.26q-3.78 0-7.5-.29a95.266 95.266 0 0 0 0-189.94q3.72-.285 7.5-.29a95.261 95.261 0 0 1 95.26 95.26z" fill="#f2c300"/><g fill="#5f266d"><path d="m128 3.5a124.5 124.5 0 1 0 124.5 124.5 124.642 124.642 0 0 0 -124.5-124.5zm0 241a116.5 116.5 0 1 1 116.5-116.5 116.632 116.632 0 0 1 -116.5 116.5z"/><path d="m128 28.737a99.263 99.263 0 1 0 99.263 99.263 99.376 99.376 0 0 0 -99.263-99.263zm-67.266 37.653 57.609 57.61h-81.513a90.91 90.91 0 0 1 23.904-57.61zm-23.904 65.61h81.513l-57.609 57.61a90.91 90.91 0 0 1 -23.904-57.61zm87.17 87.17a90.915 90.915 0 0 1 -57.61-23.9l57.61-57.613zm0-100.827-57.61-57.609a90.915 90.915 0 0 1 57.61-23.904zm95.17 5.657h-81.513l57.609-57.61a90.91 90.91 0 0 1 23.904 57.61zm-87.17-87.17a90.915 90.915 0 0 1 57.61 23.9l-57.61 57.613zm0 182.34v-81.513l57.61 57.609a90.915 90.915 0 0 1 -57.61 23.904zm63.266-29.56-57.609-57.61h81.513a90.91 90.91 0 0 1 -23.904 57.61z"/><path d="m100.985 74.938a12.792 12.792 0 1 0 -12.792-12.792 12.807 12.807 0 0 0 12.792 12.792zm0-17.584a4.792 4.792 0 1 1 -4.792 4.792 4.8 4.8 0 0 1 4.792-4.792z"/><path d="m193.854 168a12.792 12.792 0 1 0 -12.792-12.792 12.807 12.807 0 0 0 12.792 12.792zm0-17.583a4.792 4.792 0 1 1 -4.792 4.791 4.8 4.8 0 0 1 4.792-4.791z"/><path d="m149.963 193.5a12.792 12.792 0 1 0 -12.792-12.792 12.806 12.806 0 0 0 12.792 12.792zm0-17.583a4.792 4.792 0 1 1 -4.792 4.791 4.8 4.8 0 0 1 4.792-4.791z"/><path d="m157.9 53.277a4 4 0 0 0 -4.845-2.921c-2.035.511-3.765-1.868-3.843-1.978-2.957-4.349-9.557.088-6.635 4.47 5.409 8.112 16.87 6.668 15.323.429z"/><path d="m190.614 89.493c2.064-.345 3.615 2.147 3.684 2.261 2.6 4.506 9.548.647 6.951-3.962-1.571-2.786-5.856-7.225-11.975-6.186a4 4 0 1 0 1.34 7.887z"/><path d="m176.839 103.056c1.817 1.039 1.432 3.952 1.413 4.086a4 4 0 0 0 3.252 4.594 4.062 4.062 0 0 0 .7.062 4 4 0 0 0 3.934-3.308c.555-3.149.057-9.3-5.327-12.38a4 4 0 0 0 -3.971 6.946z"/><path d="m163.746 149.648c2.74 6.115 13.185-.951 12.547-9.336a4 4 0 1 0 -7.976.6c.159 2.089-2.47 3.4-2.59 3.462a4 4 0 0 0 -1.981 5.274z"/><path d="m104.612 206.44c1.977-.691 3.922 1.517 4.01 1.619 3.345 4.055 9.509-.965 6.195-5.062-6.116-7.562-17.42-5.12-15.3.982a4 4 0 0 0 5.095 2.461z"/><path d="m91.715 144.849c-1.983-.676-2.156-3.612-2.163-3.744a4 4 0 0 0 -8 .172c.16 9.611 10.526 14.892 12.656 8.649a4 4 0 0 0 -2.493-5.077z"/><path d="m148.321 83.526c-2.034.509-3.764-1.868-3.843-1.978-2.959-4.348-9.558.086-6.635 4.47 5.41 8.117 16.857 6.623 15.323.429a4 4 0 0 0 -4.845-2.921z"/><path d="m65.24 85.43c-2.033.511-3.764-1.869-3.843-1.979a4 4 0 0 0 -6.635 4.47c1.513 2.27 5.09 5.592 9.846 5.592a10.6 10.6 0 0 0 2.556-.318 4 4 0 1 0 -1.924-7.765z"/><path d="m161.823 65.75a5.574 5.574 0 1 0 5.574 5.573 5.573 5.573 0 0 0 -5.574-5.573z"/><circle cx="111.124" cy="86.118" r="5.573"/><circle cx="202.645" cy="109.812" r="5.573"/><path d="m87.125 197.428a5.573 5.573 0 1 0 -5.573-5.573 5.573 5.573 0 0 0 5.573 5.573z"/><circle cx="67.72" cy="166.343" r="5.573" transform="matrix(.999 -.045 .045 .999 -7.468 3.239)"/><path d="m53.906 103.642a5.574 5.574 0 1 0 5.574 5.574 5.574 5.574 0 0 0 -5.574-5.574z"/><path d="m76.842 97.166a5.573 5.573 0 1 0 5.573 5.573 5.574 5.574 0 0 0 -5.573-5.573z"/><path d="m71.452 143.073a7.231 7.231 0 0 0 -6.826-5.33l-14.049-.349a7.266 7.266 0 0 0 -7.219 9.085l2.053 7.946a7.271 7.271 0 0 0 10.927 4.323l12-7.6a7.227 7.227 0 0 0 3.114-8.075zm-18.546 8.38-1.56-6.038 10.675.266z"/><path d="m113.064 186.268 7.517-11.876a7.266 7.266 0 0 0 -4.087-10.859l-7.872-2.321a7.274 7.274 0 0 0 -9.321 7.155l.356 14.2a7.272 7.272 0 0 0 13.407 3.701zm.238-15.335-5.709 9.021-.271-10.784z"/><path d="m174.189 199.559c1.285-.826 2.5-1.686 3.611-2.557a4 4 0 0 0 -4.933-6.3c-.917.718-1.927 1.433-3 2.125a4 4 0 0 0 4.326 6.729z"/><path d="m157.151 198.965a105 105 0 0 1 -16.645 4.591 4 4 0 1 0 1.33 7.888 110.97 110.97 0 0 0 18.087-4.975 4 4 0 0 0 -2.772-7.5z"/></g></svg>